<?xml version="1.0" encoding="UTF-8" standalone="no"?>
<svg width="42px" height="45px" viewBox="0 0 42 45" version="1.1" xmlns="http://www.w3.org/2000/svg" xmlns:xlink="http://www.w3.org/1999/xlink">
    <!-- Generator: Sketch 3.6.1 (26313) - http://www.bohemiancoding.com/sketch -->
    <title>Slice 1</title>
    <desc>Created with Sketch.</desc>
    <defs></defs>
    <g id="Page-1" stroke="none" stroke-width="1" fill="none" fill-rule="evenodd">
        <g id="Logo" fill="#4990E2">
            <path d="M26.9572209,26.7293694 C26.9572209,27.8646201 26.068714,28.7940287 24.9827612,28.7940287 L17.1239777,28.7940287 C16.0380249,28.7940287 15.1489756,27.8646201 15.1489756,26.7293694 L15.1489756,18.5149624 C15.1489756,17.3785776 16.0380249,16.449736 17.1239777,16.449736 L24.9827612,16.449736 C26.068714,16.449736 26.9572209,17.3785776 26.9572209,18.5149624 L26.9572209,26.7293694" id="Fill-1"></path>
            <path d="M18.8815844,32.3687644 C17.7956315,32.3687644 16.2659677,31.7251532 15.4826931,30.9386433 L13.2321345,28.6783488 C12.4488598,27.8918389 11.8077028,26.3188191 11.8077028,25.1835684 L11.8077028,18.5149624 C11.8077028,17.3785776 10.919196,16.449736 9.83324317,16.449736 L1.97445968,16.449736 C0.888506857,16.449736 0,17.3785776 0,18.5149624 L0,26.7293694 C0,27.8646201 0.888506857,28.7940287 1.97445968,28.7940287 L7.99167981,28.7940287 C9.07817507,28.7940287 10.6078389,29.438207 11.3911136,30.2247169 L13.6183475,32.462329 C14.4021646,33.2488389 15.0427791,34.8218587 15.0427791,35.9576766 L15.0427791,42.6489648 C15.0427791,43.7842156 15.9318284,44.7130571 17.0177812,44.7130571 L24.8765647,44.7130571 C25.9625175,44.7130571 26.8510244,43.7842156 26.8510244,42.6489648 L26.8510244,34.4334238 C26.8510244,33.298173 25.9625175,32.3687644 24.8765647,32.3687644 L18.8815844,32.3687644" id="Fill-2"></path>
            <path d="M34.0641909,16.5315184 C32.9782381,16.5315184 31.4485742,15.8879072 30.6652996,15.1013973 L28.3805677,12.8076464 C27.597293,12.0211365 26.9566785,10.4481167 26.9566785,9.313433 L26.9566785,2.67771647 C26.9566785,1.54189864 26.0681716,0.613057105 24.9816764,0.613057105 L17.1234353,0.613057105 C16.0374825,0.613057105 15.1489756,1.54189864 15.1489756,2.67771647 L15.1489756,10.8926904 C15.1489756,12.0279412 16.0374825,12.9573498 17.1234353,12.9573498 L23.1742863,12.9573498 C24.2602392,12.9573498 25.789903,13.6003939 26.5731776,14.3874709 L28.7678655,16.5921937 C29.5511402,17.3781365 30.1917547,18.9511563 30.1917547,20.0869741 L30.1917547,26.8111518 C30.1917547,27.9464025 31.080804,28.8758111 32.1667568,28.8758111 L40.0249979,28.8758111 C41.1114931,28.8758111 42,27.9464025 42,26.8111518 L42,18.5967449 C42,17.46036 41.1114931,16.5315184 40.0249979,16.5315184 L34.0641909,16.5315184" id="Fill-3"></path>
        </g>
    </g>
</svg>