<?xml version="1.0" encoding="UTF-8" standalone="no"?>
<svg width="147px" height="78px" viewBox="0 0 147 78" version="1.1" xmlns="http://www.w3.org/2000/svg" xmlns:xlink="http://www.w3.org/1999/xlink">
    <!-- Generator: Sketch 3.6.1 (26313) - http://www.bohemiancoding.com/sketch -->
    <title>Slice 1</title>
    <desc>Created with Sketch.</desc>
    <defs></defs>
    <g id="Page-1" stroke="none" stroke-width="1" fill="none" fill-rule="evenodd">
        <g id="Path-2" fill="#000000">
            <path d="M1.23925781,1.27441406 L49.4023438,1.10058594 C49.4023438,1.10058594 65.5761719,2.9375 65.5761719,24.0244141 C65.5761719,45.1113281 55.1416016,44.1533203 53.9677734,46.0351562 C52.7939453,47.9169922 71.3701172,76.7431641 71.3701172,76.7431641 L49.359375,76.6455078 L34.109375,50.3955078 L21.1855469,53.8193359 L21.1855469,77.4375 L0.415466809,77.4375 L1.23925781,1.27441406 Z M21,17.1132812 L21,37.6254303 L42.3466797,32.3740234 C42.3466797,32.3740234 50.8671875,23.7441406 43.0966797,16.8632812 L21,17.1132812 Z"></path>
            <path d="M78.4023438,1.02246094 L78.4023438,77.0694427 L97.7601574,77.0694427 L97.7601574,55.434107 L127.052734,47.8378906 L127.052734,77.035273 L146.901991,77.035273 L146.901991,1.02026515 L126.822635,1.02026515 L126.822635,30.5332032 L98.3242188,38.5332031 L98.3242188,0.780823991 L78.4023438,1.02246094 Z" id="Path-3"></path>
        </g>
    </g>
</svg>