<?xml version="1.0" encoding="UTF-8" standalone="no"?>
<svg width="71px" height="54px" viewBox="0 0 71 54" version="1.1" xmlns="http://www.w3.org/2000/svg" xmlns:xlink="http://www.w3.org/1999/xlink">
    <!-- Generator: Sketch 3.6.1 (26313) - http://www.bohemiancoding.com/sketch -->
    <title>Slice 1</title>
    <desc>Created with Sketch.</desc>
    <defs></defs>
    <g id="Page-1" stroke="none" stroke-width="1" fill="none" fill-rule="evenodd">
        <g id="Group">
            <path d="M55.8886723,0.0930175781 C29.9423765,0.118901914 3.99462643,0.0930175781 3.99462643,0.0930175781 C3.99462643,0.0930175781 0.0571290004,0.397460937 0.0571289062,3.734375 C0.0571288121,7.07128906 0.0571289062,36.9463429 0.0571289062,36.9463429 C0.0571289062,36.9463429 -0.317871052,41.0712891 3.74731445,41.0712891 L58.0459409,41.0712891 C58.0459409,41.0712891 62.002441,40.6091309 62.0024414,37.128418 C62.0024418,33.6477051 62.0241699,4.234375 62.0241699,4.234375 C62.0241699,4.234375 62.2395015,0.0390625 58.0788574,0.0390625" id="Path-2" fill="#FF7F43"></path>
            <path d="M4.07299805,8.79858398 C4.07299805,8.79858398 3.29858398,3.98608398 7.01318359,3.98608398 L55.2329129,3.98608398 C55.2329129,3.98608398 58.0617696,3.76611328 58.0617676,6.73339844 C58.0617656,9.70068359 58.0617676,34.0922076 58.0617676,34.0922076 C58.0617676,34.0922076 58.4099103,36.9860816 55.135498,36.986084 C51.8610858,36.9860864 6.84740722,36.986084 6.84740722,36.986084 C6.84740722,36.986084 4.03491211,37.325439 4.03491211,34.192627 C4.03491211,31.0598149 4.07299805,8.79858398 4.07299805,8.79858398 Z" id="Path-1" fill="#C5C5C5"></path>
            <path d="M20.71875,41.0227051 L41.2763672,41.0227051 C41.2763672,41.0227051 41.5144043,44.5726318 43.1746216,46.1431885 C44.6166985,47.5882505 44.7126465,47.62677 44.7126465,47.62677 L45.5822144,48.7680664 C45.5822144,48.7680664 46.0801392,49.4925537 45.9851074,51.0318604 C46.0067749,50.9932251 32.1186523,50.9743652 32.1186523,50.9743652 L16.0497437,51.0079956 C16.0497437,51.0079956 15.7922363,49.5891113 16.2922363,48.9309082 C16.7922364,48.2727051 17.3017578,47.6130371 19.1535645,45.9394531 C20.4892578,44.1918945 20.71875,41.0227051 20.71875,41.0227051 Z" id="Path-3" fill="#4E4E4E"></path>
        </g>
        <g id="Group-2" transform="translate(47.500000, 35.500000) rotate(-270.000000) translate(-47.500000, -35.500000) translate(34.000000, 12.000000)">
            <path d="M26.5918481,43.7569995 L26.5918481,3.11594787 C26.5918481,3.11594787 26.7321911,0.00423589777 23.4761598,0.00423589693 C20.2201285,0.0042358961 3.20622107,0.00423589693 3.20622107,0.00423589693 C3.20622107,0.00423589693 0.0614695687,-0.173855943 0.0614694868,2.98888571 C0.0614694049,6.15162737 0.0614694868,43.7260722 0.0614694868,43.7260722 C0.0614694868,43.7260722 -0.0187000183,46.7762734 3.06403174,46.7762732 C6.14676349,46.776273 23.5089518,46.7762732 23.5089518,46.7762732 C23.5089518,46.7762732 26.6248039,46.8911951 26.6248046,44.0584849 C26.6248054,41.2257746 26.5918481,43.7569995 26.5918481,43.7569995 Z" id="Path-4" fill="#FF7F43"></path>
            <path d="M23.5144856,5.0210038 C23.6731584,7.6425772 23.5144856,38.8008102 23.5144856,38.8008102 C23.5144856,38.8008102 23.4897682,41.6840041 21.2682573,41.6840039 C19.0467463,41.6840038 5.20645428,41.6840039 5.20645428,41.6840039 C5.20645428,41.6840039 3.11766381,42.0559043 2.99720868,38.9606957 C2.87675354,35.865487 2.99720868,5.3105821 2.99720868,5.3105821 C2.99720868,5.3105821 2.82833685,2.38927412 5.15186507,2.38927412 C7.4753933,2.38927412 5.33229283,2.43514852 5.33229283,2.43514852 L21.2620724,2.43514852 C21.2620724,2.43514852 23.3558129,2.3994304 23.5144856,5.0210038 Z" id="Path-5" fill="#D8D8D8"></path>
            <rect id="Rectangle-1" fill="#FFFFFF" x="10.125" y="43.6428571" width="6.82533482" height="0.754357993"></rect>
        </g>
        <g id="Group-2" transform="translate(40.000000, 28.000000)">
            <path d="M14.6101888,23.9388253 L14.6101888,1.70469028 C14.6101888,1.70469028 14.6872965,0.00231739877 12.8983561,0.00231739831 C11.1094157,0.00231739786 1.76157351,0.00231739831 1.76157351,0.00231739831 C1.76157351,0.00231739831 0.0337728315,-0.0951140871 0.0337727865,1.6351764 C0.0337727415,3.36546689 0.0337727865,23.9219055 0.0337727865,23.9219055 C0.0337727865,23.9219055 -0.0102742313,25.5906267 1.68345133,25.5906266 C3.3771769,25.5906264 12.9163728,25.5906266 12.9163728,25.5906266 C12.9163728,25.5906266 14.6282955,25.6534987 14.6282959,24.1037636 C14.6282963,22.5540286 14.6101888,23.9388253 14.6101888,23.9388253 Z" id="Path-4" fill="#FF7F43"></path>
            <path d="M2.9296875,2.90752883 L11.6818843,2.90752883 C11.6818843,2.90752883 12.8322347,2.89176045 12.9194132,4.04909939 C13.0065918,5.20643834 12.9194132,18.9617795 12.9194132,18.9617795 C12.9194132,18.9617795 12.9058329,20.2346153 11.6852824,20.2346153 C10.4647319,20.2346152 2.86054883,20.2346153 2.86054883,20.2346153 C2.86054883,20.2346153 1.71291806,20.3987971 1.64673717,19.0323637 C1.58055627,17.6659303 1.64673717,4.17693875 1.64673717,4.17693875 C1.64673717,4.17693875 1.553955,2.88727679 2.83055623,2.88727679 C4.10715747,2.88727679 2.9296875,2.90752883 2.9296875,2.90752883 Z" id="Path-5" fill="#D8D8D8"></path>
            <rect id="Rectangle-1" fill="#FFFFFF" x="5.41666667" y="1.23809524" width="3.75" height="0.5"></rect>
            <ellipse id="Oval-1" fill="#FFFFFF" cx="7.29166667" cy="22.9047619" rx="1.04166667" ry="1.03174603"></ellipse>
        </g>
    </g>
</svg>